<?xml version="1.0" encoding="UTF-8"?>
<!DOCTYPE svg PUBLIC "-//W3C//DTD SVG 1.1//EN" "http://www.w3.org/Graphics/SVG/1.1/DTD/svg11.dtd">
<svg xmlns="http://www.w3.org/2000/svg" version="1.1" width="256px" height="194px" style="shape-rendering:geometricPrecision; text-rendering:geometricPrecision; image-rendering:optimizeQuality; fill-rule:evenodd; clip-rule:evenodd" xmlns:xlink="http://www.w3.org/1999/xlink">
<g><path style="opacity:0.998" fill="#cccccc" d="M 87.5,0.5 C 87.5,11.1667 87.5,21.8333 87.5,32.5C 58.1667,32.5 28.8333,32.5 -0.5,32.5C -0.5,23.8333 -0.5,15.1667 -0.5,6.5C 0.977392,4.19301 2.97739,2.35968 5.5,1C 32.8313,0.500025 60.1646,0.333358 87.5,0.5 Z"/></g>
<g><path style="opacity:1" fill="#989998" d="M 87.5,0.5 C 115.5,0.5 143.5,0.5 171.5,0.5C 171.5,11.1667 171.5,21.8333 171.5,32.5C 143.5,32.5 115.5,32.5 87.5,32.5C 87.5,21.8333 87.5,11.1667 87.5,0.5 Z"/></g>
<g><path style="opacity:0.998" fill="#656565" d="M 171.5,0.5 C 197.502,0.333361 223.502,0.500027 249.5,1C 252.023,2.35968 254.023,4.19301 255.5,6.5C 255.5,15.1667 255.5,23.8333 255.5,32.5C 227.833,32.5 200.167,32.5 172.5,32.5C 172.167,32.5 171.833,32.5 171.5,32.5C 171.5,21.8333 171.5,11.1667 171.5,0.5 Z"/></g>
<g><path style="opacity:1" fill="#474747" d="M -0.5,32.5 C 28.8333,32.5 58.1667,32.5 87.5,32.5C 115.5,32.5 143.5,32.5 171.5,32.5C 171.833,32.5 172.167,32.5 172.5,32.5C 145.06,48.7258 117.393,64.7258 89.5,80.5C 86.6328,78.9579 84.2994,76.7912 82.5,74C 80.2445,74.6147 77.9111,74.9481 75.5,75C 73.3333,72.8333 71.1667,70.6667 69,68.5C 68.2825,69.4506 67.4491,69.6172 66.5,69C 61.7815,65.312 56.7815,62.1454 51.5,59.5C 48.7212,59.2786 46.0545,59.612 43.5,60.5C 43.1034,59.475 42.4368,59.3083 41.5,60C 37.3333,63.5 33.1667,67 29,70.5C 28.3388,75.6921 26.5055,80.3588 23.5,84.5C 24.0933,86.3817 24.7599,88.2151 25.5,90C 24.5419,91.1475 24.8753,92.1475 26.5,93C 25.6433,93.6891 24.9767,94.5224 24.5,95.5C 25.9705,98.136 27.6372,100.636 29.5,103C 27.9991,104.252 26.3325,105.252 24.5,106C 27.0168,108.349 29.3501,110.849 31.5,113.5C 21.1359,120.348 10.4692,126.682 -0.5,132.5C -0.5,99.1667 -0.5,65.8333 -0.5,32.5 Z"/></g>
<g><path style="opacity:1" fill="#414141" d="M 172.5,32.5 C 200.167,32.5 227.833,32.5 255.5,32.5C 255.5,40.1667 255.5,47.8333 255.5,55.5C 207.059,82.8901 158.725,110.557 110.5,138.5C 110.167,138.167 109.833,137.833 109.5,137.5C 112.315,133.553 113.815,129.22 114,124.5C 112.663,125.765 111.163,126.265 109.5,126C 112.059,123.075 112.059,120.075 109.5,117C 110.34,115.334 109.84,115.167 108,116.5C 107.044,113.623 105.711,110.956 104,108.5C 95.9538,100.619 87.4538,93.2856 78.5,86.5C 77.1667,85.5 75.8333,84.5 74.5,83.5C 66.8333,75.5 59.1667,67.5 51.5,59.5C 56.7815,62.1454 61.7815,65.312 66.5,69C 67.4491,69.6172 68.2825,69.4506 69,68.5C 71.1667,70.6667 73.3333,72.8333 75.5,75C 77.9111,74.9481 80.2445,74.6147 82.5,74C 84.2994,76.7912 86.6328,78.9579 89.5,80.5C 117.393,64.7258 145.06,48.7258 172.5,32.5 Z"/></g>
<g><path style="opacity:1" fill="#3c3c3c" d="M 255.5,55.5 C 255.5,78.8333 255.5,102.167 255.5,125.5C 241.699,132.901 228.032,140.568 214.5,148.5C 211.812,145.978 208.979,143.644 206,141.5C 204.04,143.899 201.874,144.065 199.5,142C 173.966,141.359 148.633,142.193 123.5,144.5C 121.859,145.147 120.526,146.147 119.5,147.5C 117.852,151.832 116.019,156.166 114,160.5C 113.71,164.863 113.21,169.196 112.5,173.5C 113.564,175.959 114.898,178.292 116.5,180.5C 115.674,181.451 115.508,182.451 116,183.5C 118.748,185.458 121.582,187.291 124.5,189C 123.167,189.667 121.833,190.333 120.5,191C 121.737,191.232 122.737,191.732 123.5,192.5C 88.5,192.5 53.5,192.5 18.5,192.5C 22.9365,189.441 27.6032,186.608 32.5,184C 29.5372,182.039 26.8706,179.706 24.5,177C 25.3279,176.085 26.3279,175.419 27.5,175C 26.4055,171.565 24.7388,168.732 22.5,166.5C 23.09,165.201 24.09,164.368 25.5,164C 24.3832,160.927 24.2165,157.76 25,154.5C 26.8402,151.737 28.1735,148.737 29,145.5C 36.8771,137.958 44.3771,130.124 51.5,122C 50.9318,120.128 50.2651,118.295 49.5,116.5C 49.7093,115.914 50.0426,115.414 50.5,115C 48.4023,112.146 46.069,109.479 43.5,107C 43.8333,106.667 44.1667,106.333 44.5,106C 35.4419,98.0303 31.1085,87.8637 31.5,75.5C 31.3505,76.552 31.5172,77.552 32,78.5C 38.3685,85.036 44.8685,91.3694 51.5,97.5C 56.1667,102.5 60.8333,107.5 65.5,112.5C 64.5,113.833 63.5,115.167 62.5,116.5C 59.8333,118.5 57.5,120.833 55.5,123.5C 47.5351,130.964 39.7017,138.631 32,146.5C 31.51,147.793 31.3433,149.127 31.5,150.5C 30.3871,151.946 30.2204,153.613 31,155.5C 32.579,161.28 34.7457,166.446 37.5,171C 40.4917,173.11 43.825,174.443 47.5,175C 44.8792,175.906 45.0459,176.406 48,176.5C 56.6767,174.506 63.8434,170.006 69.5,163C 69.1667,162.667 68.8333,162.333 68.5,162C 79.4676,152.04 89.3009,141.207 98,129.5C 98.8368,126.635 99.6702,123.802 100.5,121C 100.167,120.667 99.8333,120.333 99.5,120C 101.065,118.494 101.399,116.994 100.5,115.5C 101.83,113.119 101.664,110.786 100,108.5C 92.6308,101.298 85.4641,93.9649 78.5,86.5C 87.4538,93.2856 95.9538,100.619 104,108.5C 105.711,110.956 107.044,113.623 108,116.5C 109.84,115.167 110.34,115.334 109.5,117C 112.059,120.075 112.059,123.075 109.5,126C 111.163,126.265 112.663,125.765 114,124.5C 113.815,129.22 112.315,133.553 109.5,137.5C 109.833,137.833 110.167,138.167 110.5,138.5C 158.725,110.557 207.059,82.8901 255.5,55.5 Z"/></g>
<g><path style="opacity:0.998" fill="#414141" d="M 43.5,60.5 C 37.9484,64.3716 33.9484,69.3716 31.5,75.5C 31.1085,87.8637 35.4419,98.0303 44.5,106C 44.1667,106.333 43.8333,106.667 43.5,107C 46.069,109.479 48.4023,112.146 50.5,115C 50.0426,115.414 49.7093,115.914 49.5,116.5C 50.2651,118.295 50.9318,120.128 51.5,122C 44.3771,130.124 36.8771,137.958 29,145.5C 28.1735,148.737 26.8402,151.737 25,154.5C 24.2165,157.76 24.3832,160.927 25.5,164C 24.09,164.368 23.09,165.201 22.5,166.5C 24.7388,168.732 26.4055,171.565 27.5,175C 26.3279,175.419 25.3279,176.085 24.5,177C 26.8706,179.706 29.5372,182.039 32.5,184C 27.6032,186.608 22.9365,189.441 18.5,192.5C 14.1539,192.666 9.82056,192.499 5.5,192C 2.97739,190.64 0.977392,188.807 -0.5,186.5C -0.5,168.5 -0.5,150.5 -0.5,132.5C 10.4692,126.682 21.1359,120.348 31.5,113.5C 29.3501,110.849 27.0168,108.349 24.5,106C 26.3325,105.252 27.9991,104.252 29.5,103C 27.6372,100.636 25.9705,98.136 24.5,95.5C 24.9767,94.5224 25.6433,93.6891 26.5,93C 24.8753,92.1475 24.5419,91.1475 25.5,90C 24.7599,88.2151 24.0933,86.3817 23.5,84.5C 26.5055,80.3588 28.3388,75.6921 29,70.5C 33.1667,67 37.3333,63.5 41.5,60C 42.4368,59.3083 43.1034,59.475 43.5,60.5 Z"/></g>
<g><path style="opacity:1" fill="#dcdcdc" d="M 51.5,59.5 C 59.1667,67.5 66.8333,75.5 74.5,83.5C 67.3691,88.9056 59.7025,93.5722 51.5,97.5C 44.8685,91.3694 38.3685,85.036 32,78.5C 31.5172,77.552 31.3505,76.552 31.5,75.5C 33.9484,69.3716 37.9484,64.3716 43.5,60.5C 46.0545,59.612 48.7212,59.2786 51.5,59.5 Z"/></g>
<g><path style="opacity:1" fill="#d1d1d1" d="M 74.5,83.5 C 75.8333,84.5 77.1667,85.5 78.5,86.5C 85.4641,93.9649 92.6308,101.298 100,108.5C 101.664,110.786 101.83,113.119 100.5,115.5C 96.5,120.167 92.1667,124.5 87.5,128.5C 85.4727,128.662 83.4727,128.495 81.5,128C 76.298,122.63 70.9647,117.464 65.5,112.5C 60.8333,107.5 56.1667,102.5 51.5,97.5C 59.7025,93.5722 67.3691,88.9056 74.5,83.5 Z"/></g>
<g><path style="opacity:1" fill="#858585" d="M 65.5,112.5 C 70.9647,117.464 76.298,122.63 81.5,128C 83.4727,128.495 85.4727,128.662 87.5,128.5C 84.8333,131.833 81.8333,134.833 78.5,137.5C 73.4067,130.312 68.0734,123.312 62.5,116.5C 63.5,115.167 64.5,113.833 65.5,112.5 Z"/></g>
<g><path style="opacity:1" fill="#343434" d="M 100.5,115.5 C 101.399,116.994 101.065,118.494 99.5,120C 99.8333,120.333 100.167,120.667 100.5,121C 99.6702,123.802 98.8368,126.635 98,129.5C 89.3009,141.207 79.4676,152.04 68.5,162C 68.8333,162.333 69.1667,162.667 69.5,163C 63.8434,170.006 56.6767,174.506 48,176.5C 45.0459,176.406 44.8792,175.906 47.5,175C 43.825,174.443 40.4917,173.11 37.5,171C 34.7457,166.446 32.579,161.28 31,155.5C 30.2204,153.613 30.3871,151.946 31.5,150.5C 31.7497,152.674 32.7497,154.341 34.5,155.5C 37.2956,158.797 40.2956,161.964 43.5,165C 46.1667,165.667 48.8333,165.667 51.5,165C 60.7023,155.965 69.7023,146.798 78.5,137.5C 81.8333,134.833 84.8333,131.833 87.5,128.5C 92.1667,124.5 96.5,120.167 100.5,115.5 Z"/></g>
<g><path style="opacity:1" fill="#9b9b9b" d="M 62.5,116.5 C 68.0734,123.312 73.4067,130.312 78.5,137.5C 69.7023,146.798 60.7023,155.965 51.5,165C 48.8333,165.667 46.1667,165.667 43.5,165C 40.2956,161.964 37.2956,158.797 34.5,155.5C 43.966,152.272 52.2994,147.272 59.5,140.5C 60.7135,135.062 60.2135,129.729 58,124.5C 57.3292,123.748 56.4959,123.414 55.5,123.5C 57.5,120.833 59.8333,118.5 62.5,116.5 Z"/></g>
<g><path style="opacity:1" fill="#a5a5a5" d="M 55.5,123.5 C 56.4959,123.414 57.3292,123.748 58,124.5C 60.2135,129.729 60.7135,135.062 59.5,140.5C 52.2994,147.272 43.966,152.272 34.5,155.5C 32.7497,154.341 31.7497,152.674 31.5,150.5C 31.3433,149.127 31.51,147.793 32,146.5C 39.7017,138.631 47.5351,130.964 55.5,123.5 Z"/></g>
<g><path style="opacity:0.999" fill="#353535" d="M 255.5,125.5 C 255.5,145.833 255.5,166.167 255.5,186.5C 254.023,188.807 252.023,190.64 249.5,192C 207.501,192.5 165.501,192.667 123.5,192.5C 122.737,191.732 121.737,191.232 120.5,191C 121.833,190.333 123.167,189.667 124.5,189C 121.582,187.291 118.748,185.458 116,183.5C 115.508,182.451 115.674,181.451 116.5,180.5C 114.898,178.292 113.564,175.959 112.5,173.5C 113.21,169.196 113.71,164.863 114,160.5C 116.019,156.166 117.852,151.832 119.5,147.5C 119.244,154.224 119.577,160.891 120.5,167.5C 121.219,169.888 122.885,171.388 125.5,172C 127.556,176.032 130.89,178.032 135.5,178C 154.456,179.939 173.456,180.939 192.5,181C 202.028,179.131 206.695,173.297 206.5,163.5C 206.258,158.872 205.258,154.539 203.5,150.5C 203.671,148.007 202.671,146.174 200.5,145C 192.173,144.5 183.84,144.334 175.5,144.5C 158.167,144.5 140.833,144.5 123.5,144.5C 148.633,142.193 173.966,141.359 199.5,142C 201.874,144.065 204.04,143.899 206,141.5C 208.979,143.644 211.812,145.978 214.5,148.5C 228.032,140.568 241.699,132.901 255.5,125.5 Z"/></g>
<g><path style="opacity:1" fill="#dedede" d="M 123.5,144.5 C 140.833,144.5 158.167,144.5 175.5,144.5C 162.5,152.5 149.5,160.5 136.5,168.5C 131.105,168.733 125.772,168.4 120.5,167.5C 119.577,160.891 119.244,154.224 119.5,147.5C 120.526,146.147 121.859,145.147 123.5,144.5 Z"/></g>
<g><path style="opacity:1" fill="#d3d3d3" d="M 175.5,144.5 C 183.84,144.334 192.173,144.5 200.5,145C 202.671,146.174 203.671,148.007 203.5,150.5C 203.666,155.511 203.499,160.511 203,165.5C 202.5,166.667 201.667,167.5 200.5,168C 179.169,168.5 157.836,168.667 136.5,168.5C 149.5,160.5 162.5,152.5 175.5,144.5 Z"/></g>
<g><path style="opacity:1" fill="#2d2d2d" d="M 203.5,150.5 C 205.258,154.539 206.258,158.872 206.5,163.5C 206.695,173.297 202.028,179.131 192.5,181C 173.456,180.939 154.456,179.939 135.5,178C 130.89,178.032 127.556,176.032 125.5,172C 122.885,171.388 121.219,169.888 120.5,167.5C 125.772,168.4 131.105,168.733 136.5,168.5C 157.836,168.667 179.169,168.5 200.5,168C 201.667,167.5 202.5,166.667 203,165.5C 203.499,160.511 203.666,155.511 203.5,150.5 Z"/></g>
</svg>
